# xmcd
#
# Track frame offsets: 
#        150
#        15411
#        30352
#        45656
#        65508
#        80885
#        98251
#        114927
#        133904
#        152423
#        165865
#        183743
#
# Disc length: 2665 seconds
#
# Revision: 0
# Processed by: cddbd v1.5.2PL0 Copyright (c) Steve Scherf et al.
# Submitted via: ExactAudioCopyFreeDBPlugin 1.0
#
DISCID=860a670c
DTITLE=Gordie Tentrees - Jaxon Haldane - GRIT
DYEAR=2018
DGENRE=Country
TTITLE0=Armand
TTITLE1=29 Loads of Freight
TTITLE2=Craft Beards and Man Buns
TTITLE3=Junior
TTITLE4=Bottleneck to Wire
TTITLE5=I Don't Have a Gun
TTITLE6=No Integrity Man
TTITLE7=Willie's Diamond Joe
TTITLE8=Lost
TTITLE9=Sideman Blues
TTITLE10=Holy Moly
TTITLE11=Wasted Moments
EXTD=
EXTT0=
EXTT1=
EXTT2=
EXTT3=
EXTT4=
EXTT5=
EXTT6=
EXTT7=
EXTT8=
EXTT9=
EXTT10=
EXTT11=
PLAYORDER=
